<svg width="32" height="32" viewBox="0 0 32 32" fill="none" xmlns="http://www.w3.org/2000/svg">
<path d="M18.6667 10.6668C18.6667 13.181 18.6667 14.438 19.4477 15.2191C20.2288 16.0002 21.4858 16.0002 24 16.0002C26.5142 16.0002 27.7713 16.0002 28.5523 15.2191C29.3333 14.438 29.3333 13.181 29.3333 10.6668C29.3333 8.15267 29.3333 6.89559 28.5523 6.11455C27.7713 5.3335 26.5142 5.3335 24 5.3335C21.4858 5.3335 20.2288 5.3335 19.4477 6.11455C18.6667 6.89559 18.6667 8.15267 18.6667 10.6668Z" stroke="#50B4E5" stroke-width="1.5"/>
<path d="M18.6667 9.3335V15.3096C18.6667 20.6064 22.0209 25.0984 26.6667 26.6668" stroke="#50B4E5" stroke-width="1.5" stroke-linecap="round"/>
<path d="M2.66668 10.6668C2.66668 13.181 2.66668 14.438 3.44774 15.2191C4.22881 16.0002 5.48588 16.0002 8.00001 16.0002C10.5141 16.0002 11.7712 16.0002 12.5523 15.2191C13.3333 14.438 13.3333 13.181 13.3333 10.6668C13.3333 8.15267 13.3333 6.89559 12.5523 6.11455C11.7712 5.3335 10.5141 5.3335 8.00001 5.3335C5.48588 5.3335 4.22881 5.3335 3.44774 6.11455C2.66668 6.89559 2.66668 8.15267 2.66668 10.6668Z" stroke="#50B4E5" stroke-width="1.5"/>
<path d="M2.66666 9.3335V15.3096C2.66666 20.6064 6.02092 25.0984 10.6667 26.6668" stroke="#50B4E5" stroke-width="1.5" stroke-linecap="round"/>
</svg>
