<svg width="24" height="24" viewBox="0 0 24 24" fill="none" xmlns="http://www.w3.org/2000/svg">
<g clip-path="url(#clip0_54_602)">
<path d="M8.164 8.00007C7.58459 7.99183 7.02618 7.78177 6.585 7.40607C5.66378 6.56135 5.10571 5.39253 5.028 4.14507C4.785 1.65107 6.145 0.181065 7.614 0.0170653C7.96796 -0.0224084 8.32625 0.00984584 8.66747 0.111902C9.00869 0.213959 9.32584 0.383725 9.6 0.611065C10.0093 0.979828 10.3415 1.42591 10.5777 1.92361C10.8138 2.42132 10.9492 2.96083 10.976 3.51107C11.2 5.83407 9.962 8.00007 8.164 8.00007ZM2.853 14.0001C2.32088 13.9879 1.81285 13.7758 1.43 13.4061C0.583495 12.5247 0.0859758 11.3658 0.0300031 10.1451C-0.189997 7.65107 1.036 6.18107 2.361 6.01707C2.68399 5.98017 3.01114 6.0142 3.31961 6.11679C3.62809 6.21939 3.91045 6.38807 4.147 6.61107C4.90778 7.38919 5.35039 8.42348 5.388 9.51106C5.589 11.8341 4.359 14.0001 2.853 14.0001ZM15.836 8.00007C14.026 8.00007 12.802 5.83407 13.029 3.50807C13.0558 2.95783 13.1912 2.41832 13.4273 1.92061C13.6635 1.42291 13.9957 0.976828 14.405 0.608065C14.6789 0.382039 14.9953 0.213271 15.3356 0.111755C15.6759 0.0102391 16.0331 -0.0219598 16.386 0.0170653C17.855 0.181065 19.215 1.65107 18.972 4.14507C18.8942 5.3928 18.3362 6.56191 17.415 7.40707C16.9735 7.78211 16.4152 7.99178 15.836 8.00007ZM21.053 14.0001C19.167 14.0001 18.226 11.8341 18.438 9.50807C18.4801 8.41353 18.9382 7.37629 19.719 6.60807C19.9667 6.38341 20.2595 6.21421 20.5779 6.11177C20.8962 6.00934 21.2328 5.97603 21.565 6.01407C22.933 6.17807 24.2 7.64807 23.974 10.1421C23.9105 11.3714 23.3935 12.5336 22.523 13.4041C22.1226 13.7762 21.5995 13.9883 21.053 14.0001ZM16 24.0001C15.1453 24.0169 14.3014 23.8082 13.553 23.3951C13.0742 23.1428 12.5412 23.011 12 23.011C11.4588 23.011 10.9258 23.1428 10.447 23.3951C7.434 25.0821 3.922 23.2271 4 19.0001C4 14.3641 8.507 10.0001 12 10.0001C15.493 10.0001 20 14.3641 20 19.0001C20 21.9441 18.355 24.0001 16 24.0001Z" fill="white"/>
</g>
<defs>
<clipPath id="clip0_54_602">
<rect width="24" height="24" fill="white"/>
</clipPath>
</defs>
</svg>
