<svg width="20" height="20" viewBox="0 0 20 20" fill="none" xmlns="http://www.w3.org/2000/svg">
<path d="M7.85511 2.55232C8.903 1.96194 9.427 1.66675 10 1.66675C10.573 1.66675 11.097 1.96194 12.1449 2.55232L13.6032 3.37392C14.691 3.98676 15.2349 4.29317 15.5341 4.80561C15.8333 5.31806 15.8333 5.94306 15.8333 7.19306V8.64041C15.8333 9.89041 15.8333 10.5154 15.5341 11.0279C15.2349 11.5403 14.691 11.8467 13.6032 12.4596L12.1449 13.2812C11.097 13.8716 10.573 14.1667 10 14.1667C9.427 14.1667 8.903 13.8716 7.85511 13.2812L6.39677 12.4596C5.30901 11.8467 4.76512 11.5403 4.4659 11.0279C4.16666 10.5154 4.16666 9.89041 4.16666 8.64041V7.19306C4.16666 5.94306 4.16666 5.31806 4.4659 4.80561C4.76512 4.29317 5.30901 3.98676 6.39677 3.37392L7.85511 2.55232Z" stroke="#F7931C" stroke-width="1.5" stroke-linejoin="round"/>
<path d="M7.5 8.47225C7.5 8.47225 8.125 8.47225 8.75 9.58333C8.75 9.58333 10.7353 6.80556 12.5 6.25" stroke="#F7931C" stroke-width="1.5" stroke-linecap="round" stroke-linejoin="round"/>
<path d="M14.0688 12.5L14.6273 15.1749C14.9861 16.8936 15.1655 17.7529 14.7969 18.1602C14.4284 18.5675 13.7883 18.2172 12.5083 17.5165L10.6137 16.4794C10.3112 16.3138 10.1599 16.2311 10 16.2311C9.84008 16.2311 9.68883 16.3138 9.38633 16.4794L7.49173 17.5165C6.21164 18.2172 5.5716 18.5675 5.20304 18.1602C4.83449 17.7529 5.01391 16.8936 5.37276 15.1749L5.93127 12.5" stroke="#F7931C" stroke-width="1.5" stroke-linecap="round" stroke-linejoin="round"/>
</svg>
